<svg version="1.1" id="Layer_1" xmlns="http://www.w3.org/2000/svg" xmlns:xlink="http://www.w3.org/1999/xlink" x="0px" y="0px" width="100%" viewBox="0 0 1024 1536">
  <path fill="#F29368" opacity="1.000000" stroke="none" d="M 357.254 660.687 L 448.511 586.118 L 391.453 770.746 L 281.666 883.593 L 357.254 660.687 Z"></path>
  <path fill="#CC2B21" opacity="1.000000" stroke="none" d="M 222.492 526.922 L 204.759 459.683 L 338.257 387.344 L 296.13 495.534 L 222.492 526.922 Z"></path>
  <path fill="#961A1A" opacity="1.000000" stroke="none" d="M 785.206 773.336 L 895.488 1008.563 L 780.44 887.035 L 785.206 773.336 Z"></path>
  <path fill="#9C1A1A" opacity="1.000000" stroke="none" d="M 831.282 1325.936 L 767.336 1393.049 L 662.662 1383.369 L 728.433 1325.536 L 831.282 1325.936 Z"></path>
  <path fill="#741718" opacity="1.000000" stroke="none" d="M 649.387 613.479 L 706.916 679.449 L 666.846 759.538 L 623.815 704.024 L 649.387 613.479 Z"></path>
  <path fill="#791718" opacity="1.000000" stroke="none" d="M 549.712 233.994 L 664.947 379.635 L 505.553 325.209 L 549.712 233.994 Z"></path>
  <path fill="#C72620" opacity="1.000000" stroke="none" d="M 261.851 1143.463 L 273.415 985.032 L 320.486 1085.968 L 291.068 1214.033 L 261.851 1143.463 Z"></path>
  <path fill="#5A1416" opacity="1.000000" stroke="none" d="M 566.877 1256.428 L 507.648 1176.828 L 545.944 1123.038 L 618.908 1234.995 L 566.877 1256.428 Z"></path>
  <path fill="#961A1A" opacity="1.000000" stroke="none" d="M 964.257 1284.669 L 919.677 1351.182 L 868.036 1380.088 L 903.805 1248.947 L 964.257 1284.669 Z"></path>
  <path fill="#9C1A1A" opacity="1.000000" stroke="none" d="M 696.84 461.786 L 506.832 325.822 L 618.922 348.866 L 696.84 461.786 Z"></path>
  <path fill="#8F191A" opacity="1.000000" stroke="none" d="M 624.513 467.301 L 694.67 561.925 L 707.027 684.025 L 649.772 614.729 L 624.513 467.301 Z"></path>
  <path fill="#D02D24" opacity="1.000000" stroke="none" d="M 545.885 1374.849 L 453.372 1388.147 L 569.346 1318.422 L 728.75 1326.104 L 545.885 1374.849 Z"></path>
  <path fill="#F18E66" opacity="1.000000" stroke="none" d="M 280.893 920.665 L 211.273 844.091 L 252.148 750.121 L 282.791 882.482 L 280.893 920.665 Z"></path>
  <path fill="#C72620" opacity="1.000000" stroke="none" d="M 491.079 1175.18 L 396.03 1333.781 L 443.684 1132.527 L 456.256 1118.306 L 491.079 1175.18 Z"></path>
  <path fill="#C0251F" opacity="1.000000" stroke="none" d="M 706.706 679.497 L 787.417 775.41 L 719.957 821.512 L 706.706 679.497 Z"></path>
  <path fill="#F7C89D" opacity="1.000000" stroke="none" d="M 312.84 610.876 L 181.116 753.326 L 217.462 636.54 L 312.84 610.876 Z"></path>
  <path fill="#A61C1B" opacity="1.000000" stroke="none" d="M 290.753 1214.01 L 318.806 1081.777 L 351.419 1157.647 L 312.028 1237.677 L 290.753 1214.01 Z"></path>
  <path fill="#8F191A" opacity="1.000000" stroke="none" d="M 381.417 1082.171 L 351.362 1158.154 L 318.173 1084.218 L 323.303 1029.803 L 381.417 1082.171 Z"></path>
  <path fill="#B2211E" opacity="1.000000" stroke="none" d="M 222.272 526.948 L 392.212 453.036 L 385.654 501.297 L 222.272 526.948 Z"></path>
  <path fill="#B01E1C" opacity="1.000000" stroke="none" d="M 542.804 1375.521 L 729.214 1325.663 L 664.454 1383.586 L 542.804 1375.521 Z"></path>
  <path fill="#641517" opacity="1.000000" stroke="none" d="M 787.232 986.019 L 896.719 1007.996 L 874.696 1077.243 L 787.232 986.019 Z"></path>
  <path fill="#9C1A1A" opacity="1.000000" stroke="none" d="M 718.405 819.68 L 786.905 773.079 L 780.731 887.491 L 718.405 819.68 Z"></path>
  <path fill="#D53125" opacity="1.000000" stroke="none" d="M 506.712 1202.363 L 453.8 1117.409 L 502.242 1063.292 L 508.46 1169.759 L 509.024 1177.585 L 506.712 1202.363 Z"></path>
  <path fill="#641517" opacity="1.000000" stroke="none" d="M 425.569 245.714 L 454.785 144.723 L 475.766 301.207 L 425.569 245.714 Z"></path>
  <path fill="#F29B70" opacity="1.000000" stroke="none" d="M 211.924 844.251 L 181.342 752.988 L 226.622 703.397 L 211.924 844.251 Z"></path>
  <path fill="#DF4228" opacity="1.000000" stroke="none" d="M 381.221 1082.23 L 273.238 984.91 L 280.391 922.49 L 381.221 1082.23 Z"></path>
  <path fill="#5A1416" opacity="1.000000" stroke="none" d="M 432.386 226.49 L 427.068 245.835 L 383.932 250.785 L 323.617 157.166 L 432.386 226.49 Z"></path>
  <path fill="#791718" opacity="1.000000" stroke="none" d="M 873.507 1076.945 L 896.365 1008.559 L 938.19 1170.51 L 873.507 1076.945 Z"></path>
  <path fill="#D33126" opacity="1.000000" stroke="none" d="M 293.426 1212.548 L 233.254 1281.95 L 261.997 1143.079 L 293.426 1212.548 Z"></path>
  <path fill="#E65C3E" opacity="1.000000" stroke="none" d="M 356.401 1317.178 L 396.07 1332.936 L 380.057 1372.246 L 301.071 1373.222 L 356.401 1317.178 Z"></path>
  <path fill="#641517" opacity="1.000000" stroke="none" d="M 501.298 1317.446 L 444.168 1314.847 L 490.88 1263.103 L 557.952 1266.665 L 501.298 1317.446 Z"></path>
  <path fill="#D02D24" opacity="1.000000" stroke="none" d="M 497.533 252.454 L 454.438 144.836 L 549.752 234.431 L 497.533 252.454 Z"></path>
  <path fill="#4B1314" opacity="1.000000" stroke="none" d="M 454.783 144.873 L 497.456 251.719 L 506.616 326.603 L 474.664 299.972 L 454.783 144.873 Z"></path>
  <path fill="#87191A" opacity="1.000000" stroke="none" d="M 937.632 1168.727 L 963.998 1285.575 L 901.923 1248.901 L 937.632 1168.727 Z"></path>
  <path fill="#9C1A1A" opacity="1.000000" stroke="none" d="M 937.915 1169.626 L 903.457 1249.552 L 841.514 1242.056 L 937.915 1169.626 Z"></path>
  <path fill="#F29B70" opacity="1.000000" stroke="none" d="M 356.111 1317.608 L 301.258 1373.234 L 257.788 1374.041 L 292.799 1323.456 L 334.673 1310.075 L 356.111 1317.608 Z"></path>
  <path fill="#ED845B" opacity="1.000000" stroke="none" d="M 281.382 920.854 L 273.311 984.744 L 211.024 843.368 L 281.382 920.854 Z"></path>
  <path fill="#E2482B" opacity="1.000000" stroke="none" d="M 570.8 1319.218 L 453.707 1388.154 L 501.946 1317.018 L 570.8 1319.218 Z"></path>
  <path fill="#C32820" opacity="1.000000" stroke="none" d="M 323.258 156.674 L 384.451 250.91 L 346.396 278.315 L 323.258 156.674 Z"></path>
  <path fill="#E75734" opacity="1.000000" stroke="none" d="M 182.278 1339.615 L 233.189 1281.768 L 259.566 1340.035 L 182.278 1339.615 Z"></path>
  <path fill="#ED845B" opacity="1.000000" stroke="none" d="M 233.732 1282.281 L 183.444 1339.201 L 147.135 1341.142 L 185.603 1287.647 L 233.732 1282.281 Z"></path>
  <path fill="#ED845B" opacity="1.000000" stroke="none" d="M 356.092 1318.125 L 335.081 1310.905 L 354.577 1243.429 L 384.564 1210.431 L 356.092 1318.125 Z"></path>
  <path fill="#EC734B" opacity="1.000000" stroke="none" d="M 298.59 313.399 L 384.674 250.157 L 334.774 323.3 L 298.59 313.399 Z"></path>
  <path fill="#EA6641" opacity="1.000000" stroke="none" d="M 178.321 440.763 L 192.016 431.664 L 288.717 386.371 L 205.646 459.453 L 178.321 440.763 Z"></path>
  <path fill="#CC2B21" opacity="1.000000" stroke="none" d="M 259.431 1339.79 L 290.403 1211.069 L 312.176 1237.068 L 259.431 1339.79 Z"></path>
  <path fill="#4B1314" opacity="1.000000" stroke="none" d="M 206.123 459.205 L 184.34 500.279 L 145.861 463.986 L 206.123 459.205 Z"></path>
  <path fill="#B6211D" opacity="1.000000" stroke="none" d="M 184.312 500.154 L 205.759 459.488 L 222.649 526.937 L 184.312 500.154 Z"></path>
  <path fill="#E2482B" opacity="1.000000" stroke="none" d="M 298.622 313.361 L 334.782 322.44 L 285.619 360.407 L 298.622 313.361 Z"></path>
  <path fill="#8F191A" opacity="1.000000" stroke="none" d="M 205.566 459.362 L 146.148 464.02 L 178.532 440.537 L 205.566 459.362 Z"></path>
  <path fill="#E65B31" opacity="1.000000" stroke="none" d="M 391.301 771.61 L 447.174 588.181 L 520.351 482.671 L 513.741 659.983 L 391.301 771.61 Z"></path>
  <path fill="#ED7147" opacity="1.000000" stroke="none" d="M 391.365 770.728 L 372.741 977.884 L 281.35 883.441 L 391.365 770.728 Z"></path>
  <path fill="#F5B98E" opacity="1.000000" stroke="none" d="M 357.156 661.997 L 281.99 883.72 L 252.073 751.301 L 357.156 661.997 Z"></path>
  <path fill="#EC734B" opacity="1.000000" stroke="none" d="M 384.809 501.304 L 448.231 586.796 L 357.855 661.256 L 384.809 501.304 Z"></path>
  <path fill="#F5B98E" opacity="1.000000" stroke="none" d="M 226.172 703.948 L 313.588 609.639 L 211.592 844.802 L 226.172 703.948 Z"></path>
  <path fill="#F2A378" opacity="1.000000" stroke="none" d="M 385.197 501.111 L 357.96 660.547 L 311.671 610.102 L 385.197 501.111 Z"></path>
  <path fill="#E65C3E" opacity="1.000000" stroke="none" d="M 385.661 500.666 L 311.318 610.969 L 333.422 509.176 L 385.661 500.666 Z"></path>
  <path fill="#D53125" opacity="1.000000" stroke="none" d="M 392.603 453.199 L 295.378 495.381 L 339.075 384.971 L 417.454 343.924 L 460.86 378.265 L 392.603 453.199 Z"></path>
  <path fill="#DC3C28" opacity="1.000000" stroke="none" d="M 426.706 244.87 L 334.731 322.453 L 382.461 251.005 L 426.706 244.87 Z"></path>
  <path fill="#791718" opacity="1.000000" stroke="none" d="M 896.301 1008.155 L 778.726 985.568 L 785.583 892.188 L 896.301 1008.155 Z"></path>
  <path fill="#87191A" opacity="1.000000" stroke="none" d="M 785.837 891.748 L 781.353 984.169 L 719.372 817.786 L 785.837 891.748 Z"></path>
  <path fill="#C0251F" opacity="1.000000" stroke="none" d="M 687.064 1265.243 L 802.646 1273.181 L 727.376 1326.605 L 687.064 1265.243 Z"></path>
  <path fill="#B01E1C" opacity="1.000000" stroke="none" d="M 726.486 1326.954 L 801.832 1272.555 L 904.317 1249.105 L 831.156 1327.253 L 726.486 1326.954 Z"></path>
  <path fill="#791718" opacity="1.000000" stroke="none" d="M 765.273 1393.296 L 903.918 1249.339 L 869.242 1379.651 L 765.273 1393.296 Z"></path>
  <path fill="#A41C1B" opacity="1.000000" stroke="none" d="M 649.908 614.037 L 625.312 701.507 L 533.205 789.285 L 578.916 613.501 L 649.908 614.037 Z"></path>
  <path fill="#9C1A1A" opacity="1.000000" stroke="none" d="M 650.402 614.764 L 576.885 613.885 L 597.297 541.791 L 624.397 466.028 L 650.402 614.764 Z"></path>
  <path fill="#791718" opacity="1.000000" stroke="none" d="M 532.16 789.588 L 625.964 700.249 L 619.171 829.485 L 532.16 789.588 Z"></path>
  <path fill="#A61C1B" opacity="1.000000" stroke="none" d="M 665.756 759.12 L 706.844 679.155 L 721.624 819.386 L 665.756 759.12 Z"></path>
  <path fill="#641517" opacity="1.000000" stroke="none" d="M 625.033 701.964 L 667.481 758.619 L 618.247 831.884 L 625.033 701.964 Z"></path>
  <path fill="#A61C1B" opacity="1.000000" stroke="none" d="M 460.327 379.238 L 417.069 344.241 L 475.772 300.826 L 507.586 326.565 L 543.747 391.528 L 460.327 379.238 Z"></path>
  <path fill="#B6211D" opacity="1.000000" stroke="none" d="M 549.848 234.246 L 506.042 326.186 L 497.327 252.076 L 549.848 234.246 Z"></path>
  <path fill="#A61C1B" opacity="1.000000" stroke="none" d="M 273.235 984.605 L 323.758 1030.211 L 318.689 1085.612 L 273.235 984.605 Z"></path>
  <path fill="#4B1314" opacity="1.000000" stroke="none" d="M 648.853 1227.002 L 617.53 1236.101 L 544.958 1123.951 L 565.599 1011.333 L 594.484 976.772 L 682.399 980.343 L 612.006 1063.273 L 615.044 1176.825 L 648.853 1227.002 Z"></path>
  <path fill="#E75734" opacity="1.000000" stroke="none" d="M 501.623 1317.371 L 573.887 1247.355 L 663.074 1261.045 L 568.544 1319.857 L 501.623 1317.371 Z"></path>
  <path fill="#DF4228" opacity="1.000000" stroke="none" d="M 691.032 1267.522 L 574.803 1248.092 L 647.435 1225.511 L 687.286 1223.195 L 691.032 1267.522 Z"></path>
  <path fill="#C72620" opacity="1.000000" stroke="none" d="M 565.953 1011.45 L 545.059 1124.247 L 501.004 1067.641 L 565.953 1011.45 Z"></path>
  <path fill="#A41C1B" opacity="1.000000" stroke="none" d="M 501.639 1066.54 L 545.406 1123.986 L 508.713 1177.421 L 501.639 1066.54 Z"></path>
  <path fill="#B01E1C" opacity="1.000000" stroke="none" d="M 716.163 591.448 L 624.225 467.115 L 613.082 401.647 L 686.054 453.051 L 716.163 591.448 Z"></path>
  <path fill="#87191A" opacity="1.000000" stroke="none" d="M 624.34 467.187 L 599.055 539.687 L 541.936 389.558 L 613.646 401.335 L 624.34 467.187 Z"></path>
  <path fill="#641517" opacity="1.000000" stroke="none" d="M 614.303 402.458 L 543.435 391.137 L 506.308 324.952 L 614.303 402.458 Z"></path>
  <path fill="#D83528" opacity="1.000000" stroke="none" d="M 660.241 1261.038 L 688.323 1265.347 L 728.882 1327.189 L 568.048 1319.111 L 660.241 1261.038 Z"></path>
  <path fill="#EA6641" opacity="1.000000" stroke="none" d="M 281.95 883.094 L 372.916 976.839 L 381.102 1082.49 L 280.633 923.24 L 281.95 883.094 Z"></path>
  <path fill="#DF4228" opacity="1.000000" stroke="none" d="M 447.7 1125.796 L 396.166 1333.624 L 383.303 1210.076 L 447.7 1125.796 Z"></path>
  <path fill="#D02D24" opacity="1.000000" stroke="none" d="M 455.059 1120.13 L 384.912 1207.813 L 407.138 1033.698 L 455.059 1120.13 Z"></path>
  <path fill="#DF4228" opacity="1.000000" stroke="none" d="M 447.774 588.833 L 384.295 501.268 L 519.88 483.156 L 447.774 588.833 Z"></path>
  <path fill="#CC2B21" opacity="1.000000" stroke="none" d="M 392.238 452.595 L 520.691 483.374 L 385.068 501.19 L 392.238 452.595 Z"></path>
  <path fill="#9C1A1A" opacity="1.000000" stroke="none" d="M 718.069 1042.168 L 783.505 981.833 L 875.513 1077.553 L 718.069 1042.168 Z"></path>
  <path fill="#6B1618" opacity="1.000000" stroke="none" d="M 841.399 1242.175 L 871.998 1073.359 L 937.966 1169.974 L 841.399 1242.175 Z"></path>
  <path fill="#6B1618" opacity="1.000000" stroke="none" d="M 781.806 984.471 L 592.783 977.426 L 721.49 818.129 L 781.806 984.471 Z"></path>
  <path fill="#791718" opacity="1.000000" stroke="none" d="M 723.592 816.911 L 592.743 979.998 L 616.134 828.847 L 723.592 816.911 Z"></path>
  <path fill="#8F191A" opacity="1.000000" stroke="none" d="M 722.69 819.171 L 618.733 829.453 L 666.641 759.141 L 722.69 819.171 Z"></path>
  <path fill="#C0251F" opacity="1.000000" stroke="none" d="M 455.341 1117.95 L 476.352 945.826 L 501.867 1064.562 L 455.341 1117.95 Z"></path>
  <path fill="#C0251F" opacity="1.000000" stroke="none" d="M 475.92 300.704 L 417.436 345.002 L 335.209 321.777 L 426.488 244.898 L 475.92 300.704 Z"></path>
  <path fill="#DF4228" opacity="1.000000" stroke="none" d="M 292.948 1211.644 L 259.445 1339.999 L 233.025 1281.468 L 292.948 1211.644 Z"></path>
  <path fill="#EA6641" opacity="1.000000" stroke="none" d="M 384.61 1208.895 L 396.122 1333.384 L 356.198 1317.196 L 384.61 1208.895 Z"></path>
  <path fill="#E2482B" opacity="1.000000" stroke="none" d="M 385.379 1210.748 L 354.059 1244.329 L 381.456 1081.359 L 407.261 1033.461 L 385.379 1210.748 Z"></path>
  <path fill="#ED845B" opacity="1.000000" stroke="none" d="M 333.931 323.1 L 288.14 386.688 L 191.501 432.084 L 333.931 323.1 Z"></path>
  <path fill="#B2211E" opacity="1.000000" stroke="none" d="M 598.732 538.412 L 533.91 787.353 L 510.692 659.038 L 598.732 538.412 Z"></path>
  <path fill="#D33126" opacity="1.000000" stroke="none" d="M 435.729 882.283 L 390.642 772.145 L 512.283 657.446 L 435.729 882.283 Z"></path>
  <path fill="#C0251F" opacity="1.000000" stroke="none" d="M 434.164 876.398 L 511.149 658.715 L 535.244 787.283 L 434.164 876.398 Z"></path>
  <path fill="#D53125" opacity="1.000000" stroke="none" d="M 598.999 540.715 L 511.348 661.143 C 511.348 701.657 520.061 482.305 520.061 482.305 L 598.999 540.715 Z"></path>
  <path fill="#B6211D" opacity="1.000000" stroke="none" d="M 476.43 945.985 L 455.148 1121.667 L 406.338 1032.526 L 476.43 945.985 Z"></path>
  <path fill="#CC2B21" opacity="1.000000" stroke="none" d="M 435.349 876.573 L 372.421 976.146 L 391.103 771.666 L 435.349 876.573 Z"></path>
  <path fill="#E2482B" opacity="1.000000" stroke="none" d="M 519.808 483.281 L 392.412 453.004 L 460.666 378.498 L 519.808 483.281 Z"></path>
  <path fill="#B01E1C" opacity="1.000000" stroke="none" d="M 692.621 967.663 L 783.771 981.692 L 718.823 1042.418 L 692.621 967.663 Z"></path>
  <path fill="#641517" opacity="1.000000" stroke="none" d="M 764.737 1179.174 L 842.384 1242.41 L 685.575 1224.746 L 764.737 1179.174 Z"></path>
  <path fill="#DC3C28" opacity="1.000000" stroke="none" d="M 688.193 1265.628 L 685.743 1223.156 L 802.225 1273.47 L 688.193 1265.628 Z"></path>
  <path fill="#741718" opacity="1.000000" stroke="none" d="M 560.639 908.241 L 534.031 788.454 L 620.044 829.528 L 560.639 908.241 Z"></path>
  <path fill="#5A1416" opacity="1.000000" stroke="none" d="M 560.597 907.13 L 617.846 829.394 L 594.547 977.669 L 560.597 907.13 Z"></path>
  <path fill="#C0251F" opacity="1.000000" stroke="none" d="M 600.196 541.683 L 519.898 483.003 L 543.126 391.327 L 600.196 541.683 Z"></path>
  <path fill="#D83528" opacity="1.000000" stroke="none" d="M 543.329 391.239 L 520.016 483.765 L 460.467 378.681 L 543.329 391.239 Z"></path>
  <path fill="#961A1A" opacity="1.000000" stroke="none" d="M 561.343 907.158 L 594.736 977.117 L 565.566 1011.978 L 475.356 944.988 L 561.343 907.158 Z"></path>
  <path fill="#A61C1B" opacity="1.000000" stroke="none" d="M 686.719 1225 L 647.522 1226.064 L 613.129 1174.223 L 657.211 1097.678 L 686.719 1225 Z"></path>
  <path fill="#D53125" opacity="1.000000" stroke="none" d="M 692.452 968.104 L 657.235 1098.565 L 608.886 1065.631 L 692.452 968.104 Z"></path>
  <path fill="#C72620" opacity="1.000000" stroke="none" d="M 608.83 1065.495 L 657.251 1098.077 L 613.565 1173.822 L 608.83 1065.495 Z"></path>
  <path fill="#B01E1C" opacity="1.000000" stroke="none" d="M 475.869 945.382 L 566 1011.405 L 501.988 1068.275 L 475.869 945.382 Z"></path>
  <path fill="#87191A" opacity="1.000000" stroke="none" d="M 686.363 1224.919 L 657.106 1098.105 L 765.274 1179.174 L 686.363 1224.919 Z"></path>
  <path fill="#A41C1B" opacity="1.000000" stroke="none" d="M 713.44 1140.678 L 657.078 1098.33 L 718.726 1042.069 L 737.034 1069.386 L 713.44 1140.678 Z"></path>
  <path fill="#87191A" opacity="1.000000" stroke="none" d="M 841.702 1242.062 L 764.738 1179.774 L 782.781 1146.634 L 841.702 1242.062 Z"></path>
  <path fill="#C72620" opacity="1.000000" stroke="none" d="M 719.076 1041.888 L 656.78 1099.719 L 692.618 967.383 L 719.076 1041.888 Z"></path>
  <path fill="#9C1A1A" opacity="1.000000" stroke="none" d="M 534.064 787.608 L 479.383 949.04 L 433.137 876.769 L 534.064 787.608 Z"></path>
  <path fill="#C0251F" opacity="1.000000" stroke="none" d="M 433.86 877.019 L 477.688 944.869 L 406.438 1033.159 L 433.86 877.019 Z"></path>
  <path fill="#87191A" opacity="1.000000" stroke="none" d="M 478.329 943.828 L 534.545 786.056 L 561.859 908.692 L 478.329 943.828 Z"></path>
  <path fill="#DC3C28" opacity="1.000000" stroke="none" d="M 418.445 344.066 L 205.433 459.411 L 287.619 387.394 L 334.821 321.015 L 418.445 344.066 Z" style="stroke-width: 1;"></path>
  <ellipse style="fill:#4B1314" cx="349.585" cy="373.467" rx="18.008" ry="18.008" fill="#4B1314"></ellipse>
  <path fill="#F29368" opacity="1.000000" stroke="none" d="M 252.037 751.445 L 312.755 610.079 L 359.166 660.819 L 252.037 751.445 Z" style="stroke-width: 1;"></path>
  <path fill="#F29368" opacity="1.000000" stroke="none" d="M 217.286 637.005 L 314.427 512.052 L 334.07 509.035 L 312.85 611.082 L 217.286 637.005 Z" style="stroke-width: 1;"></path>
  <path fill="#B6211D" opacity="1.000000" stroke="none" d="M 433.976 877.08 L 407.542 1032.53 L 372.272 976.468 L 433.976 877.08 Z" style="stroke-width: 1;"></path>
  <path fill="#D02D24" opacity="1.000000" stroke="none" d="M 372.451 975.734 L 407.83 1032.666 L 381.025 1082.735 L 372.451 975.734 Z" style="stroke-width: 1;"></path>
  <path fill="#C0251F" opacity="1.000000" stroke="none" d="M 686.73 1224.02 L 904.025 1249.263 L 801.725 1273.781 L 686.73 1224.02 Z" style="stroke-width: 1;"></path>
  <path fill="#B01E1C" opacity="1.000000" stroke="none" d="M 781.234 1148.2 L 718.432 1042.094 L 873.389 1076.636 L 781.234 1148.2 Z" style="stroke-width: 1;"></path>
  <path fill="#9C1A1A" opacity="1.000000" stroke="none" d="M 782.049 1147.414 L 873.99 1075.348 L 841.618 1242.043 L 782.049 1147.414 Z" style="stroke-width: 1;"></path>
  <path fill="#9C1A1A" opacity="1.000000" stroke="none" d="M 782.336 1147.464 L 765.17 1180.714 L 713.213 1140.42 L 736.233 1071.466 L 782.336 1147.464 Z" style="stroke-width: 1;"></path>
</svg>